<?xml version="1.0" encoding="utf-8" ?>
<svg baseProfile="tiny" height="100%" version="1.2" width="100%" xmlns="http://www.w3.org/2000/svg" xmlns:ev="http://www.w3.org/2001/xml-events" xmlns:xlink="http://www.w3.org/1999/xlink"><defs /><rect fill="#888" height="50" width="400" x="0" y="175.0" /><rect fill="#888" height="400" width="50" x="175.0" y="0" /><rect fill="#555" height="30" width="40" x="20.0" y="145.0" /><polygon fill="#333" points="20.0,145.0 40.0,130.0 60.0,145.0" /><rect fill="#555" height="30" width="40" x="20.0" y="225.0" /><polygon fill="#333" points="20.0,225.0 40.0,210.0 60.0,225.0" /><rect fill="#555" height="30" width="40" x="100.0" y="145.0" /><polygon fill="#333" points="100.0,145.0 120.0,130.0 140.0,145.0" /><rect fill="#555" height="30" width="40" x="100.0" y="225.0" /><polygon fill="#333" points="100.0,225.0 120.0,210.0 140.0,225.0" /><rect fill="#555" height="30" width="40" x="260.0" y="145.0" /><polygon fill="#333" points="260.0,145.0 280.0,130.0 300.0,145.0" /><rect fill="#555" height="30" width="40" x="260.0" y="225.0" /><polygon fill="#333" points="260.0,225.0 280.0,210.0 300.0,225.0" /><rect fill="#555" height="30" width="40" x="340.0" y="145.0" /><polygon fill="#333" points="340.0,145.0 360.0,130.0 380.0,145.0" /><rect fill="#555" height="30" width="40" x="340.0" y="225.0" /><polygon fill="#333" points="340.0,225.0 360.0,210.0 380.0,225.0" /><rect fill="#555" height="30" width="40" x="135.0" y="20.0" /><polygon fill="#333" points="135.0,20.0 155.0,5.0 175.0,20.0" /><rect fill="#555" height="30" width="40" x="225.0" y="20.0" /><polygon fill="#333" points="225.0,20.0 245.0,5.0 265.0,20.0" /><rect fill="#555" height="30" width="40" x="135.0" y="100.0" /><polygon fill="#333" points="135.0,100.0 155.0,85.0 175.0,100.0" /><rect fill="#555" height="30" width="40" x="225.0" y="100.0" /><polygon fill="#333" points="225.0,100.0 245.0,85.0 265.0,100.0" /><rect fill="#555" height="30" width="40" x="135.0" y="260.0" /><polygon fill="#333" points="135.0,260.0 155.0,245.0 175.0,260.0" /><rect fill="#555" height="30" width="40" x="225.0" y="260.0" /><polygon fill="#333" points="225.0,260.0 245.0,245.0 265.0,260.0" /><rect fill="#555" height="30" width="40" x="135.0" y="340.0" /><polygon fill="#333" points="135.0,340.0 155.0,325.0 175.0,340.0" /><rect fill="#555" height="30" width="40" x="225.0" y="340.0" /><polygon fill="#333" points="225.0,340.0 245.0,325.0 265.0,340.0" /><circle cx="80" cy="165.0" fill="#FFD700" r="6" /><circle cx="80" cy="235.0" fill="#FFD700" r="6" /><circle cx="320" cy="165.0" fill="#FFD700" r="6" /><circle cx="320" cy="235.0" fill="#FFD700" r="6" /><circle cx="165.0" cy="80" fill="#FFD700" r="6" /><circle cx="235.0" cy="80" fill="#FFD700" r="6" /><circle cx="165.0" cy="320" fill="#FFD700" r="6" /><circle cx="235.0" cy="320" fill="#FFD700" r="6" /><circle cx="165.0" cy="160.0" fill="#FFD700" r="6" /><circle cx="235.0" cy="160.0" fill="#FFD700" r="6" /><circle cx="165.0" cy="240.0" fill="#FFD700" r="6" /><circle cx="235.0" cy="240.0" fill="#FFD700" r="6" /><circle cx="200.0" cy="200.0" fill="#FF0000" r="10" />

<circle cx="20" cy="440" r="6" fill="#FFD700" />
<text x="40" y="445" font-size="15px" fill="#000">Street light</text>

<circle cx="20" cy="460" r="5" fill="#FF0000" />
<text x="40" y="465" font-size="15px" fill="#000">Car</text>

</svg>