<?xml version="1.0" encoding="utf-8" ?>
<svg baseProfile="tiny" height="100%" version="1.2" width="100%" xmlns="http://www.w3.org/2000/svg" xmlns:ev="http://www.w3.org/2001/xml-events" xmlns:xlink="http://www.w3.org/1999/xlink"><defs /><circle cx="50" cy="150" fill="blue" r="20" /><text fill="white" x="45" y="155">0</text><circle cx="250" cy="150" fill="blue" r="20" /><text fill="white" x="245" y="155">1</text><circle cx="450" cy="150" fill="blue" r="20" /><text fill="white" x="445" y="155">2</text><circle cx="150" cy="50" fill="darkgray" r="15" /><text fill="white" x="145" y="55">7</text><circle cx="150" cy="250" fill="darkgray" r="15" /><text fill="white" x="145" y="255">14</text><circle cx="50" cy="250" fill="darkgray" r="15" /><text fill="white" x="45" y="255">21</text><circle cx="350" cy="250" fill="darkgray" r="15" /><text fill="white" x="345" y="255">8</text><circle cx="450" cy="250" fill="darkgray" r="15" /><text fill="white" x="445" y="255">9</text><line stroke="black" stroke-width="2" x1="64.1421" x2="135.8579" y1="135.8579" y2="64.1421" /><text fill="black" x="100.0" y="100.0">0.91</text><line stroke="black" stroke-width="2" x1="64.1421" x2="135.8579" y1="164.1421" y2="235.8579" /><text fill="black" x="100.0" y="200.0">0.66</text><line stroke="black" stroke-width="2" x1="50.0" x2="50.0" y1="170.0" y2="230.0" /><text fill="black" x="50.0" y="200.0">0.94</text><line stroke="black" stroke-width="2" x1="230.0" x2="70.0" y1="150.0" y2="150.0" /><text fill="black" x="150.0" y="150.0">0.74</text><line stroke="black" stroke-width="2" x1="270.0" x2="430.0" y1="150.0" y2="150.0" /><text fill="black" x="350.0" y="150.0">0.72</text><line stroke="black" stroke-width="2" x1="235.8579" x2="164.1421" y1="164.1421" y2="235.8579" /><text fill="black" x="200.0" y="200.0">0.91</text><line stroke="black" stroke-width="2" x1="264.1421" x2="335.8579" y1="164.1421" y2="235.8579" /><text fill="black" x="300.0" y="200.0">0.73</text><line stroke="black" stroke-width="2" x1="450.0" x2="450.0" y1="170.0" y2="230.0" /><text fill="black" x="450.0" y="200.0">0.67</text><line stroke="black" stroke-width="2" x1="164.1421" x2="235.8579" y1="64.1421" y2="135.8579" /><text fill="black" x="200.0" y="100.0">0.73</text><line stroke="black" stroke-width="2" x1="370.0" x2="430.0" y1="250.0" y2="250.0" /><text fill="black" x="400.0" y="250.0">0.79</text><line stroke="black" stroke-width="2" x1="430.0" x2="370.0" y1="250.0" y2="250.0" /><text fill="black" x="400.0" y="250.0">0.75</text><line stroke="black" stroke-width="2" x1="130.0" x2="70.0" y1="250.0" y2="250.0" /><text fill="black" x="100.0" y="250.0">0.82</text><line stroke="black" stroke-width="2" x1="170.0" x2="330.0" y1="250.0" y2="250.0" /><text fill="black" x="250.0" y="250.0">0.61</text><line stroke="black" stroke-width="2" x1="164.1421" x2="235.8579" y1="235.8579" y2="164.1421" /><text fill="black" x="200.0" y="200.0">0.74</text><line opacity="0.7" stroke="#FF00FF" stroke-width="4" x1="64.1421" x2="135.8579" y1="135.8579" y2="64.1421" /><line opacity="0.7" stroke="#FF00FF" stroke-width="4" x1="164.1421" x2="235.8579" y1="64.1421" y2="135.8579" /><line opacity="0.7" stroke="#FF00FF" stroke-width="4" x1="270.0" x2="430.0" y1="150.0" y2="150.0" /><text fill="#FF00FF" font-size="15px" font-weight="bold" x="10" y="30">Path 1</text><line opacity="0.7" stroke="#8FBC8F" stroke-width="4" x1="70.0" x2="230.0" y1="150.0" y2="150.0" /><line opacity="0.7" stroke="#8FBC8F" stroke-width="4" x1="270.0" x2="430.0" y1="150.0" y2="150.0" /><text fill="#8FBC8F" font-size="15px" font-weight="bold" x="10" y="50">Path 2</text><line opacity="0.7" stroke="#800080" stroke-width="4" x1="64.1421" x2="135.8579" y1="164.1421" y2="235.8579" /><line opacity="0.7" stroke="#800080" stroke-width="4" x1="164.1421" x2="235.8579" y1="235.8579" y2="164.1421" /><line opacity="0.7" stroke="#800080" stroke-width="4" x1="270.0" x2="430.0" y1="150.0" y2="150.0" /><text fill="#800080" font-size="15px" font-weight="bold" x="10" y="70">Path 3</text><line opacity="0.7" stroke="#FF0000" stroke-width="4" x1="50.0" x2="50.0" y1="170.0" y2="230.0" /><line opacity="0.7" stroke="#FF0000" stroke-width="4" x1="70.0" x2="130.0" y1="250.0" y2="250.0" /><line opacity="0.7" stroke="#FF0000" stroke-width="4" x1="164.1421" x2="235.8579" y1="235.8579" y2="164.1421" /><line opacity="0.7" stroke="#FF0000" stroke-width="4" x1="270.0" x2="430.0" y1="150.0" y2="150.0" /><text fill="#FF0000" font-size="15px" font-weight="bold" x="10" y="90">Path 4</text></svg>