<?xml version="1.0" encoding="utf-8" ?>
<svg baseProfile="tiny" height="100%" version="1.2" width="100%" xmlns="http://www.w3.org/2000/svg" xmlns:ev="http://www.w3.org/2001/xml-events" xmlns:xlink="http://www.w3.org/1999/xlink"><defs /><rect fill="#888" height="50" width="400" x="0" y="30" /><rect fill="#555" height="30" width="40" x="20.0" y="0" /><polygon fill="#333" points="20.0,0 40.0,-15.0 60.0,0" /><rect fill="#555" height="30" width="40" x="20.0" y="80" /><polygon fill="#333" points="20.0,80 40.0,65.0 60.0,80" /><rect fill="#555" height="30" width="40" x="100.0" y="0" /><polygon fill="#333" points="100.0,0 120.0,-15.0 140.0,0" /><rect fill="#555" height="30" width="40" x="100.0" y="80" /><polygon fill="#333" points="100.0,80 120.0,65.0 140.0,80" /><rect fill="#555" height="30" width="40" x="180.0" y="0" /><polygon fill="#333" points="180.0,0 200.0,-15.0 220.0,0" /><rect fill="#555" height="30" width="40" x="180.0" y="80" /><polygon fill="#333" points="180.0,80 200.0,65.0 220.0,80" /><rect fill="#555" height="30" width="40" x="260.0" y="0" /><polygon fill="#333" points="260.0,0 280.0,-15.0 300.0,0" /><rect fill="#555" height="30" width="40" x="260.0" y="80" /><polygon fill="#333" points="260.0,80 280.0,65.0 300.0,80" /><rect fill="#555" height="30" width="40" x="340.0" y="0" /><polygon fill="#333" points="340.0,0 360.0,-15.0 380.0,0" /><rect fill="#555" height="30" width="40" x="340.0" y="80" /><polygon fill="#333" points="340.0,80 360.0,65.0 380.0,80" /><circle cx="80" cy="20" fill="#FFD700" r="6" /><circle cx="80" cy="90" fill="#FFD700" r="6" /><circle cx="160" cy="20" fill="#FFD700" r="6" /><circle cx="160" cy="90" fill="#FFD700" r="6" /><circle cx="240" cy="20" fill="#FFD700" r="6" /><circle cx="240" cy="90" fill="#FFD700" r="6" /><circle cx="320" cy="20" fill="#FFD700" r="6" /><circle cx="320" cy="90" fill="#FFD700" r="6" /><circle cx="200" cy="95.0" fill="#FF0000" r="5" />

<circle cx="10" cy="160" r="6" fill="#FFD700" />
<text x="30" y="165" font-size="15px" fill="#000">Street light</text>

<circle cx="10" cy="180" r="5" fill="#FF0000" />
<text x="30" y="185" font-size="15px" fill="#000">Person exiting house</text>

</svg>